<?xml version="1.0" standalone="no"?><!DOCTYPE svg PUBLIC "-//W3C//DTD SVG 1.1//EN" "http://www.w3.org/Graphics/SVG/1.1/DTD/svg11.dtd"><svg t="1710199170772" class="icon" viewBox="0 0 1024 1024" version="1.1" xmlns="http://www.w3.org/2000/svg" p-id="4246" xmlns:xlink="http://www.w3.org/1999/xlink" width="200" height="200"><path d="M85.312 896v-256c0-23.552 19.136-42.688 42.688-42.688h256c23.552 0 42.688 19.136 42.688 42.688v256a42.688 42.688 0 0 1-42.688 42.688H128A42.688 42.688 0 0 1 85.312 896z m85.376-213.312v170.624h170.624v-170.624H170.688zM597.312 384V128c0-23.552 19.136-42.688 42.688-42.688h256c23.552 0 42.688 19.136 42.688 42.688v256a42.688 42.688 0 0 1-42.688 42.688h-256A42.688 42.688 0 0 1 597.312 384z m85.376-213.312v170.624h170.624V170.688h-170.624z" p-id="4247" fill="#8a8a8a"></path><path d="M597.312 640V384c0-23.552 19.136-42.688 42.688-42.688h256c23.552 0 42.688 19.136 42.688 42.688v256a42.688 42.688 0 0 1-42.688 42.688h-256A42.688 42.688 0 0 1 597.312 640z m85.376-213.312v170.624h170.624V426.688h-170.624z" p-id="4248" fill="#8a8a8a"></path><path d="M341.312 640V384c0-23.552 19.136-42.688 42.688-42.688h256c23.552 0 42.688 19.136 42.688 42.688v256a42.688 42.688 0 0 1-42.688 42.688H384A42.688 42.688 0 0 1 341.312 640z m85.376-213.312v170.624h170.624V426.688H426.688z" p-id="4249" fill="#8a8a8a"></path><path d="M85.312 640V384c0-23.552 19.136-42.688 42.688-42.688h256c23.552 0 42.688 19.136 42.688 42.688v256a42.688 42.688 0 0 1-42.688 42.688H128A42.688 42.688 0 0 1 85.312 640z m85.376-213.312v170.624h170.624V426.688H170.688z" p-id="4250" fill="#8a8a8a"></path></svg>